<?xml version="1.0" encoding="UTF-8" standalone="no"?><svg xmlns="http://www.w3.org/2000/svg" xmlns:xlink="http://www.w3.org/1999/xlink" contentScriptType="application/ecmascript" contentStyleType="text/css" height="1130px" preserveAspectRatio="none" style="width:923px;height:1130px;" version="1.1" viewBox="0 0 923 1130" width="923px" zoomAndPan="magnify"><defs/><g><ellipse cx="67.5537" cy="570.8507" fill="#F8F8F8" rx="61.5537" ry="14.7107" style="stroke: #383838; stroke-width: 0.5;"/><text fill="#000000" font-family="Tahoma, sans-serif" font-size="12" lengthAdjust="spacingAndGlyphs" textLength="94" x="20.5537" y="574.3351">NavigationMain</text><ellipse cx="725.3501" cy="422.61" fill="#F8F8F8" rx="55.3501" ry="13.47" style="stroke: #383838; stroke-width: 0.5;"/><text fill="#000000" font-family="Tahoma, sans-serif" font-size="12" lengthAdjust="spacingAndGlyphs" textLength="78" x="686.3501" y="426.0944">deleteImage</text><ellipse cx="543.988" cy="964.8376" fill="#F8F8F8" rx="63.988" ry="15.1976" style="stroke: #383838; stroke-width: 0.5;"/><text fill="#000000" font-family="Tahoma, sans-serif" font-size="12" lengthAdjust="spacingAndGlyphs" textLength="100" x="493.988" y="968.322">DeleteMilestone</text><ellipse cx="543.8555" cy="379.6111" fill="#F8F8F8" rx="72.8555" ry="16.9711" style="stroke: #383838; stroke-width: 0.5;"/><text fill="#000000" font-family="Tahoma, sans-serif" font-size="12" lengthAdjust="spacingAndGlyphs" textLength="121" x="483.3555" y="383.0955">diveConditionTypes</text><ellipse cx="376.0122" cy="131.5174" fill="#F8F8F8" rx="44.0122" ry="12.8774" style="stroke: #383838; stroke-width: 0.5;"/><text fill="#000000" font-family="Tahoma, sans-serif" font-size="12" lengthAdjust="spacingAndGlyphs" textLength="58" x="347.0122" y="135.0018">DiveForm</text><ellipse cx="543.8777" cy="131.8155" fill="#F8F8F8" rx="53.8777" ry="13.1755" style="stroke: #383838; stroke-width: 0.5;"/><text fill="#000000" font-family="Tahoma, sans-serif" font-size="12" lengthAdjust="spacingAndGlyphs" textLength="74" x="506.8777" y="135.2999">diveHelpers</text><ellipse cx="376.1838" cy="392.5174" fill="#F8F8F8" rx="41.1838" ry="12.8774" style="stroke: #383838; stroke-width: 0.5;"/><text fill="#000000" font-family="Tahoma, sans-serif" font-size="12" lengthAdjust="spacingAndGlyphs" textLength="54" x="349.1838" y="396.0018">DiveItem</text><ellipse cx="873.0624" cy="517.5174" fill="#F8F8F8" rx="39.0624" ry="12.8774" style="stroke: #383838; stroke-width: 0.5;"/><text fill="#000000" font-family="Tahoma, sans-serif" font-size="12" lengthAdjust="spacingAndGlyphs" textLength="51" x="847.5624" y="521.0018">firebase</text><ellipse cx="375.9608" cy="347.5322" fill="#F8F8F8" rx="59.9608" ry="14.3922" style="stroke: #383838; stroke-width: 0.5;"/><text fill="#000000" font-family="Tahoma, sans-serif" font-size="12" lengthAdjust="spacingAndGlyphs" textLength="90" x="330.9608" y="351.0165">friendsHelpers</text><ellipse cx="725.7233" cy="470.7847" fill="#F8F8F8" rx="73.7233" ry="17.1447" style="stroke: #383838; stroke-width: 0.5;"/><text fill="#000000" font-family="Tahoma, sans-serif" font-size="12" lengthAdjust="spacingAndGlyphs" textLength="123" x="664.2233" y="474.269">handleImageUpload</text><ellipse cx="222.4619" cy="447.5174" fill="#F8F8F8" rx="48.9619" ry="12.8774" style="stroke: #383838; stroke-width: 0.5;"/><text fill="#000000" font-family="Tahoma, sans-serif" font-size="12" lengthAdjust="spacingAndGlyphs" textLength="65" x="189.9619" y="451.0018">HomeView</text><ellipse cx="544.0477" cy="88.5174" fill="#F8F8F8" rx="47.5477" ry="12.8774" style="stroke: #383838; stroke-width: 0.5;"/><text fill="#000000" font-family="Tahoma, sans-serif" font-size="12" lengthAdjust="spacingAndGlyphs" textLength="63" x="512.5477" y="92.0018">IconPicker</text><ellipse cx="543.8198" cy="426.5174" fill="#F8F8F8" rx="34.8198" ry="12.8774" style="stroke: #383838; stroke-width: 0.5;"/><text fill="#000000" font-family="Tahoma, sans-serif" font-size="12" lengthAdjust="spacingAndGlyphs" textLength="45" x="521.3198" y="430.0018">Images</text><ellipse cx="543.9558" cy="295.4312" fill="#F8F8F8" rx="61.9558" ry="14.7912" style="stroke: #383838; stroke-width: 0.5;"/><text fill="#000000" font-family="Tahoma, sans-serif" font-size="12" lengthAdjust="spacingAndGlyphs" textLength="95" x="496.4558" y="298.9155">ImageUploader</text><ellipse cx="544.1985" cy="609.5174" fill="#F8F8F8" rx="32.6985" ry="12.8774" style="stroke: #383838; stroke-width: 0.5;"/><text fill="#000000" font-family="Tahoma, sans-serif" font-size="12" lengthAdjust="spacingAndGlyphs" textLength="42" x="523.1985" y="613.0018">Logout</text><ellipse cx="376.2382" cy="883.4876" fill="#F8F8F8" rx="57.2382" ry="13.8476" style="stroke: #383838; stroke-width: 0.5;"/><text fill="#000000" font-family="Tahoma, sans-serif" font-size="12" lengthAdjust="spacingAndGlyphs" textLength="83" x="334.7382" y="886.972">MilestoneAdd</text><ellipse cx="544.0667" cy="794.4533" fill="#F8F8F8" rx="59.5667" ry="14.3133" style="stroke: #383838; stroke-width: 0.5;"/><text fill="#000000" font-family="Tahoma, sans-serif" font-size="12" lengthAdjust="spacingAndGlyphs" textLength="89" x="499.5667" y="797.9377">MilestoneType</text><ellipse cx="725.2644" cy="642.5929" fill="#F8F8F8" rx="62.7644" ry="14.9529" style="stroke: #383838; stroke-width: 0.5;"/><text fill="#000000" font-family="Tahoma, sans-serif" font-size="12" lengthAdjust="spacingAndGlyphs" textLength="97" x="676.7644" y="646.0773">milestoneTypes</text><ellipse cx="222.3944" cy="718.7189" fill="#F8F8F8" rx="58.3944" ry="14.0789" style="stroke: #383838; stroke-width: 0.5;"/><text fill="#000000" font-family="Tahoma, sans-serif" font-size="12" lengthAdjust="spacingAndGlyphs" textLength="86" x="179.3944" y="722.2033">PlanFormView</text><ellipse cx="725.3777" cy="517.8155" fill="#F8F8F8" rx="53.8777" ry="13.1755" style="stroke: #383838; stroke-width: 0.5;"/><text fill="#000000" font-family="Tahoma, sans-serif" font-size="12" lengthAdjust="spacingAndGlyphs" textLength="74" x="688.3777" y="521.2999">planHelpers</text><ellipse cx="375.9767" cy="447.5174" fill="#F8F8F8" rx="40.4767" ry="12.8774" style="stroke: #383838; stroke-width: 0.5;"/><text fill="#000000" font-family="Tahoma, sans-serif" font-size="12" lengthAdjust="spacingAndGlyphs" textLength="53" x="349.4767" y="451.0018">PlanItem</text><ellipse cx="543.8406" cy="1044.5171" fill="#F8F8F8" rx="46.8406" ry="12.8774" style="stroke: #383838; stroke-width: 0.5;"/><text fill="#000000" font-family="Tahoma, sans-serif" font-size="12" lengthAdjust="spacingAndGlyphs" textLength="62" x="512.8406" y="1048.0015">PlansView</text><ellipse cx="376.0833" cy="570.5174" fill="#F8F8F8" rx="51.0833" ry="12.8774" style="stroke: #383838; stroke-width: 0.5;"/><text fill="#000000" font-family="Tahoma, sans-serif" font-size="12" lengthAdjust="spacingAndGlyphs" textLength="68" x="342.0833" y="574.0018">ProfileView</text><ellipse cx="543.8081" cy="1090.5013" fill="#F8F8F8" rx="67.3081" ry="15.8616" style="stroke: #383838; stroke-width: 0.5;"/><text fill="#000000" font-family="Tahoma, sans-serif" font-size="12" lengthAdjust="spacingAndGlyphs" textLength="108" x="489.8081" y="1093.9857">SearchUsersView</text><ellipse cx="543.8909" cy="839.5174" fill="#F8F8F8" rx="41.8909" ry="12.8774" style="stroke: #383838; stroke-width: 0.5;"/><text fill="#000000" font-family="Tahoma, sans-serif" font-size="12" lengthAdjust="spacingAndGlyphs" textLength="55" x="516.3909" y="843.0018">SkillsAdd</text><ellipse cx="543.8566" cy="883.4113" fill="#F8F8F8" rx="56.8566" ry="13.7713" style="stroke: #383838; stroke-width: 0.5;"/><text fill="#000000" font-family="Tahoma, sans-serif" font-size="12" lengthAdjust="spacingAndGlyphs" textLength="82" x="502.8566" y="886.8957">StatusToggle</text><ellipse cx="725.3701" cy="773.5174" fill="#F8F8F8" rx="29.8701" ry="12.8774" style="stroke: #383838; stroke-width: 0.5;"/><text fill="#000000" font-family="Tahoma, sans-serif" font-size="12" lengthAdjust="spacingAndGlyphs" textLength="38" x="706.3701" y="777.0018">Styles</text><ellipse cx="725.6709" cy="285.6742" fill="#F8F8F8" rx="63.1709" ry="15.0342" style="stroke: #383838; stroke-width: 0.5;"/><text fill="#000000" font-family="Tahoma, sans-serif" font-size="12" lengthAdjust="spacingAndGlyphs" textLength="98" x="676.6709" y="289.1586">useImagePicker</text><ellipse cx="544.0538" cy="212.7508" fill="#F8F8F8" rx="66.0538" ry="15.6108" style="stroke: #383838; stroke-width: 0.5;"/><text fill="#000000" font-family="Tahoma, sans-serif" font-size="12" lengthAdjust="spacingAndGlyphs" textLength="105" x="491.5538" y="216.2351">userDataHelpers</text><!--MD5=[53818b77b5b4a98e74e4d6778cd4ce26]
link deleteImage to firebase--><path d="M766.711,431.717 C777.639,435.148 789.163,439.705 799,445.64 C823.308,460.305 845.661,484.642 859.061,500.908 " fill="none" id="deleteImage-&gt;firebase" style="stroke: #000000; stroke-width: 0.5;"/><polygon fill="#000000" points="862.27,504.859,859.7003,495.3513,859.1175,500.978,853.4908,500.3952,862.27,504.859" style="stroke: #000000; stroke-width: 0.5;"/><!--MD5=[b23d712d6b3904c7178b79ec0b07bcef]
link DeleteMilestone to firebase--><path d="M578.599,952.017 C633.746,929.49 742.925,876.963 799,795.64 C857.233,711.187 869.015,583.099 871.397,535.917 " fill="none" id="DeleteMilestone-&gt;firebase" style="stroke: #000000; stroke-width: 0.5;"/><polygon fill="#000000" points="871.633,530.83,867.2207,539.6352,871.4016,535.8246,875.2121,540.0055,871.633,530.83" style="stroke: #000000; stroke-width: 0.5;"/><!--MD5=[b008d0b2f8beddee194eb4c2c61bee51]
link DeleteMilestone to Styles--><path d="M588.334,953.716 C598.591,949.614 608.892,944.07 617,936.64 C642.937,912.869 633.232,895.397 652,865.64 C669.852,837.336 694.709,807.406 710.19,789.636 " fill="none" id="DeleteMilestone-&gt;Styles" style="stroke: #000000; stroke-width: 0.5;"/><polygon fill="#000000" points="713.534,785.818,704.5953,789.9531,710.2398,789.5794,710.6135,795.2239,713.534,785.818" style="stroke: #000000; stroke-width: 0.5;"/><!--MD5=[15e1ce476e009e16bacd28036fafb8c7]
link DiveForm to diveHelpers--><path d="M420.181,131.64 C439.925,131.64 463.608,131.64 484.886,131.64 " fill="none" id="DiveForm-&gt;diveHelpers" style="stroke: #000000; stroke-width: 0.5;"/><polygon fill="#000000" points="489.954,131.64,480.954,127.64,484.954,131.64,480.954,135.64,489.954,131.64" style="stroke: #000000; stroke-width: 0.5;"/><!--MD5=[651472761e169a0d0c13d71d7c159a91]
link DiveForm to firebase--><path d="M389.65,119.261 C406.543,103.69 438.17,77.75 471,67.64 C612.26,24.12 700.424,12.5 799,122.64 C850.106,179.743 867.266,429.92 871.098,499.58 " fill="none" id="DiveForm-&gt;firebase" style="stroke: #000000; stroke-width: 0.5;"/><polygon fill="#000000" points="871.371,504.65,874.8792,495.4471,871.101,499.6573,866.8909,495.8791,871.371,504.65" style="stroke: #000000; stroke-width: 0.5;"/><!--MD5=[8eccd500b9f883da79d8bc122581a5f3]
link DiveForm to IconPicker--><path d="M409.796,123.144 C436.86,116.134 475.331,106.17 503.977,98.75 " fill="none" id="DiveForm-&gt;IconPicker" style="stroke: #000000; stroke-width: 0.5;"/><polygon fill="#000000" points="508.845,97.49,499.1296,95.8743,504.0047,98.7436,501.1354,103.6188,508.845,97.49" style="stroke: #000000; stroke-width: 0.5;"/><!--MD5=[e0a54dcc510c9785cf21d434ded8dc19]
link DiveForm to Images--><path d="M380.765,144.881 C395.7,197.055 450.945,386.5 471,405.64 C480.066,414.292 492.493,419.407 504.472,422.421 " fill="none" id="DiveForm-&gt;Images" style="stroke: #000000; stroke-width: 0.5;"/><polygon fill="#000000" points="509.567,423.589,501.6881,417.6795,504.6934,422.472,499.9009,425.4773,509.567,423.589" style="stroke: #000000; stroke-width: 0.5;"/><!--MD5=[ee03b97373d707c933532120ce1cece2]
link DiveForm to ImageUploader--><path d="M387.407,144.497 C404.146,164.886 438.479,205.509 471,236.64 C486.58,251.553 505.482,266.951 520.01,278.276 " fill="none" id="DiveForm-&gt;ImageUploader" style="stroke: #000000; stroke-width: 0.5;"/><polygon fill="#000000" points="523.985,281.358,519.3257,272.681,520.0344,278.2932,514.4221,279.0019,523.985,281.358" style="stroke: #000000; stroke-width: 0.5;"/><!--MD5=[304d771eba62d397147c077873035fb5]
link DiveForm to Styles--><path d="M379.566,144.752 C387.018,179.19 411.992,272.774 471,319.64 C523.252,361.14 572.82,304.633 617,354.64 C663.193,406.925 627.84,601.188 652,666.64 C665.203,702.408 692.818,737.832 709.898,757.613 " fill="none" id="DiveForm-&gt;Styles" style="stroke: #000000; stroke-width: 0.5;"/><polygon fill="#000000" points="713.374,761.59,710.4631,752.1811,710.0836,757.8253,704.4395,757.4458,713.374,761.59" style="stroke: #000000; stroke-width: 0.5;"/><!--MD5=[e355db0dd4c148c78845540670d17230]
link diveHelpers to firebase--><path d="M584.158,122.818 C639.453,112.871 740.211,104.35 799,157.64 C850.472,204.297 867.207,432.295 871.05,499.169 " fill="none" id="diveHelpers-&gt;firebase" style="stroke: #000000; stroke-width: 0.5;"/><polygon fill="#000000" points="871.344,504.42,874.8336,495.2101,871.064,499.4278,866.8462,495.6582,871.344,504.42" style="stroke: #000000; stroke-width: 0.5;"/><!--MD5=[f3d502712eae22ccbbe8d0552a14a11b]
link DiveItem to diveConditionTypes--><path d="M415.92,389.592 C431.862,388.343 450.86,386.855 469.246,385.416 " fill="none" id="DiveItem-&gt;diveConditionTypes" style="stroke: #000000; stroke-width: 0.5;"/><polygon fill="#000000" points="474.413,385.011,465.1284,381.7253,469.4282,385.401,465.7525,389.7009,474.413,385.011" style="stroke: #000000; stroke-width: 0.5;"/><!--MD5=[f4361bdad88798dedd7e2b5aefbbf1cb]
link DiveItem to diveHelpers--><path d="M411.853,386.142 C420.875,382.881 429.788,377.986 436,370.64 C489.187,307.742 428.257,259.053 471,188.64 C481.889,170.701 500.615,156.141 516.24,146.227 " fill="none" id="DiveItem-&gt;diveHelpers" style="stroke: #000000; stroke-width: 0.5;"/><polygon fill="#000000" points="520.556,143.555,510.7984,144.8928,516.3051,146.1875,515.0104,151.6942,520.556,143.555" style="stroke: #000000; stroke-width: 0.5;"/><!--MD5=[b8a6a81e7051726d3292e336a4f0c61b]
link DiveItem to Images--><path d="M410.993,399.602 C439.211,405.382 479.202,413.573 507.76,419.422 " fill="none" id="DiveItem-&gt;Images" style="stroke: #000000; stroke-width: 0.5;"/><polygon fill="#000000" points="512.954,420.486,504.9407,414.76,508.0559,419.4818,503.334,422.5969,512.954,420.486" style="stroke: #000000; stroke-width: 0.5;"/><!--MD5=[b11d386cc044425e61c4915d470a119f]
link DiveItem to userDataHelpers--><path d="M411.195,385.946 C420.315,382.678 429.444,377.828 436,370.64 C476.031,326.747 431.543,286.049 471,241.64 C476.966,234.925 484.707,229.741 492.893,225.745 " fill="none" id="DiveItem-&gt;userDataHelpers" style="stroke: #000000; stroke-width: 0.5;"/><polygon fill="#000000" points="497.479,223.646,487.6308,223.756,492.9329,225.7276,490.9613,231.0298,497.479,223.646" style="stroke: #000000; stroke-width: 0.5;"/><!--MD5=[556210c11fd801b186eea2b1b9bc809c]
link handleImageUpload to firebase--><path d="M768.976,484.36 C791.495,491.635 818.726,500.431 839.534,507.153 " fill="none" id="handleImageUpload-&gt;firebase" style="stroke: #000000; stroke-width: 0.5;"/><polygon fill="#000000" points="844.409,508.727,837.0743,502.1542,839.6511,507.1901,834.6152,509.7669,844.409,508.727" style="stroke: #000000; stroke-width: 0.5;"/><!--MD5=[c2e46a19de2a082179c71afd4de2e1b1]
link HomeView to DiveItem--><path d="M252.353,437.165 C278.377,427.717 316.577,413.849 343.414,404.107 " fill="none" id="HomeView-&gt;DiveItem" style="stroke: #000000; stroke-width: 0.5;"/><polygon fill="#000000" points="348.287,402.338,338.4623,401.6483,343.5869,404.0437,341.1915,409.1684,348.287,402.338" style="stroke: #000000; stroke-width: 0.5;"/><!--MD5=[b925ae836c79fe6af8111d275b7a7866]
link HomeView to firebase--><path d="M231.891,434.751 C247.249,411.587 281.482,361.864 316,324.64 C378.316,257.439 385.231,220.933 471,188.64 C531.727,165.775 552.388,182.656 617,188.64 C698.938,196.228 739.154,166.162 799,222.64 C839.982,261.315 863.398,440.84 870.029,499.234 " fill="none" id="HomeView-&gt;firebase" style="stroke: #000000; stroke-width: 0.5;"/><polygon fill="#000000" points="870.619,504.498,873.5912,495.1083,870.0618,499.5291,865.641,495.9998,870.619,504.498" style="stroke: #000000; stroke-width: 0.5;"/><!--MD5=[5963d576248133ea3df6dc3839e99da5]
link HomeView to friendsHelpers--><path d="M236.327,434.937 C253.361,418.603 284.927,390.142 316,371.64 C322.253,367.916 329.19,364.521 336.047,361.532 " fill="none" id="HomeView-&gt;friendsHelpers" style="stroke: #000000; stroke-width: 0.5;"/><polygon fill="#000000" points="340.771,359.528,330.9236,359.3609,336.1681,361.4809,334.0481,366.7254,340.771,359.528" style="stroke: #000000; stroke-width: 0.5;"/><!--MD5=[99b66da83277b34d6f62dc5cf085ccfd]
link HomeView to Logout--><path d="M227.341,460.578 C236.842,490.018 264.487,561.841 316,592.64 C376.382,628.74 462.551,622.855 509.448,615.919 " fill="none" id="HomeView-&gt;Logout" style="stroke: #000000; stroke-width: 0.5;"/><polygon fill="#000000" points="514.414,615.158,504.9121,612.5668,509.4716,615.9151,506.1234,620.4746,514.414,615.158" style="stroke: #000000; stroke-width: 0.5;"/><!--MD5=[e94a085dec80770322154334ff6dfc11]
link HomeView to PlanItem--><path d="M271.852,447.64 C290.533,447.64 311.782,447.64 330.12,447.64 " fill="none" id="HomeView-&gt;PlanItem" style="stroke: #000000; stroke-width: 0.5;"/><polygon fill="#000000" points="335.211,447.64,326.211,443.64,330.211,447.64,326.211,451.64,335.211,447.64" style="stroke: #000000; stroke-width: 0.5;"/><!--MD5=[711e5d146cc57ed2e6d5bf7789c6abea]
link HomeView to Styles--><path d="M227.353,460.858 C237.228,492.735 266.23,574.87 316,624.64 C417.605,726.243 478.306,705.078 617,742.64 C643.556,749.832 673.635,758.555 695.209,764.914 " fill="none" id="HomeView-&gt;Styles" style="stroke: #000000; stroke-width: 0.5;"/><polygon fill="#000000" points="700.227,766.396,692.7278,760.0115,695.4316,764.9804,690.4628,767.6842,700.227,766.396" style="stroke: #000000; stroke-width: 0.5;"/><!--MD5=[e58ddd162a86dc73741cf7a2ceab744c]
link Images to deleteImage--><path d="M579.185,425.878 C603.316,425.34 636.283,424.606 664.717,423.972 " fill="none" id="Images-&gt;deleteImage" style="stroke: #000000; stroke-width: 0.5;"/><polygon fill="#000000" points="669.97,423.855,660.8831,420.0566,664.9712,423.9664,661.0614,428.0546,669.97,423.855" style="stroke: #000000; stroke-width: 0.5;"/><!--MD5=[e8e6425180d5d77d1434ed0482b3fa12]
link Images to Styles--><path d="M550.812,439.718 C572.903,489.418 650.479,663.905 652,666.64 C670.63,700.145 696.684,736.586 711.956,757.121 " fill="none" id="Images-&gt;Styles" style="stroke: #000000; stroke-width: 0.5;"/><polygon fill="#000000" points="715.044,761.255,712.8616,751.651,712.0513,757.2495,706.4528,756.4393,715.044,761.255" style="stroke: #000000; stroke-width: 0.5;"/><!--MD5=[344049cff3e2f1d9be008f7f05c2b84a]
link ImageUploader to handleImageUpload--><path d="M590.034,305.918 C600.013,310.018 609.759,315.722 617,323.64 C654.779,364.953 613.676,403.832 652,444.64 C656.45,449.378 661.823,453.254 667.61,456.425 " fill="none" id="ImageUploader-&gt;handleImageUpload" style="stroke: #000000; stroke-width: 0.5;"/><polygon fill="#000000" points="672.107,458.714,665.9015,451.066,667.6513,456.4454,662.2718,458.1951,672.107,458.714" style="stroke: #000000; stroke-width: 0.5;"/><!--MD5=[8089aa59cfde4c45cde4bfe15bd92db0]
link ImageUploader to Styles--><path d="M591.829,305.354 C601.503,309.466 610.662,315.317 617,323.64 C663.417,384.597 625.829,594.63 652,666.64 C665.024,702.473 692.698,737.877 709.837,757.635 " fill="none" id="ImageUploader-&gt;Styles" style="stroke: #000000; stroke-width: 0.5;"/><polygon fill="#000000" points="713.325,761.608,710.3949,752.2051,710.0269,757.85,704.382,757.482,713.325,761.608" style="stroke: #000000; stroke-width: 0.5;"/><!--MD5=[6029bf1115648a95b4c71239c438e6e7]
link ImageUploader to useImagePicker--><path d="M604.771,292.31 C622.054,291.347 641.013,290.291 658.645,289.308 " fill="none" id="ImageUploader-&gt;useImagePicker" style="stroke: #000000; stroke-width: 0.5;"/><polygon fill="#000000" points="664.072,289.006,654.8631,285.5136,659.0798,289.2845,655.3088,293.5012,664.072,289.006" style="stroke: #000000; stroke-width: 0.5;"/><!--MD5=[5d4f397edb2fd244a72a4c95845005f6]
link Logout to firebase--><path d="M576.199,611.599 C625.65,613.492 724.096,612.27 799,579.64 C822.688,569.321 844.515,548.685 858.013,534.06 " fill="none" id="Logout-&gt;firebase" style="stroke: #000000; stroke-width: 0.5;"/><polygon fill="#000000" points="861.594,530.107,852.5871,534.0914,858.237,533.8125,858.5159,539.4625,861.594,530.107" style="stroke: #000000; stroke-width: 0.5;"/><!--MD5=[0e4ed45d5febda0a461c76c3f192024c]
link Logout to Styles--><path d="M572.743,615.726 C586.91,619.765 603.877,626.117 617,635.64 C663.006,669.026 699.204,727.362 715.343,756.318 " fill="none" id="Logout-&gt;Styles" style="stroke: #000000; stroke-width: 0.5;"/><polygon fill="#000000" points="717.941,761.037,717.1044,751.2237,715.5295,756.6569,710.0963,755.0821,717.941,761.037" style="stroke: #000000; stroke-width: 0.5;"/><!--MD5=[12ebac1641ba60b90d25ca65843ac539]
link MilestoneAdd to DeleteMilestone--><path d="M398.193,896.741 C416.949,908.055 445.262,924.455 471,936.64 C481.197,941.467 492.466,946.145 503.003,950.251 " fill="none" id="MilestoneAdd-&gt;DeleteMilestone" style="stroke: #000000; stroke-width: 0.5;"/><polygon fill="#000000" points="507.785,952.095,500.8261,945.1255,503.1196,950.2966,497.9486,952.5901,507.785,952.095" style="stroke: #000000; stroke-width: 0.5;"/><!--MD5=[b6d0874b1aae40e1cb2209d04aa84144]
link MilestoneAdd to firebase--><path d="M391.546,897.5 C403.791,909.385 421.567,927.151 436,943.64 C452.688,962.705 448.239,977.508 471,988.64 C537.952,1021.3847 751.453,976.033 799,918.64 C848.607,858.76 866.841,606.151 871.008,535.859 " fill="none" id="MilestoneAdd-&gt;firebase" style="stroke: #000000; stroke-width: 0.5;"/><polygon fill="#000000" points="871.306,530.743,866.7907,539.4958,871.016,535.7346,874.7772,539.9599,871.306,530.743" style="stroke: #000000; stroke-width: 0.5;"/><!--MD5=[87a574d612ab6810a0a42010ab5110ef]
link MilestoneAdd to MilestoneType--><path d="M393.417,870.124 C411.501,855.769 441.892,833.184 471,818.64 C479.732,814.277 489.44,810.429 498.828,807.163 " fill="none" id="MilestoneAdd-&gt;MilestoneType" style="stroke: #000000; stroke-width: 0.5;"/><polygon fill="#000000" points="503.702,805.509,493.8939,804.6135,498.9672,807.1158,496.4649,812.1891,503.702,805.509" style="stroke: #000000; stroke-width: 0.5;"/><!--MD5=[2db7840af9694a65ff781a7a6719a548]
link MilestoneAdd to SkillsAdd--><path d="M415.501,873.435 C443.001,866.145 479.755,856.403 506.735,849.252 " fill="none" id="MilestoneAdd-&gt;SkillsAdd" style="stroke: #000000; stroke-width: 0.5;"/><polygon fill="#000000" points="511.655,847.948,501.9304,846.3882,506.822,849.2295,503.9808,854.121,511.655,847.948" style="stroke: #000000; stroke-width: 0.5;"/><!--MD5=[117f64cfd5e6df45d5acd2197b46da03]
link MilestoneAdd to StatusToggle--><path d="M433.2,883.64 C448.749,883.64 465.704,883.64 481.536,883.64 " fill="none" id="MilestoneAdd-&gt;StatusToggle" style="stroke: #000000; stroke-width: 0.5;"/><polygon fill="#000000" points="486.858,883.64,477.858,879.64,481.858,883.64,477.858,887.64,486.858,883.64" style="stroke: #000000; stroke-width: 0.5;"/><!--MD5=[43bf3f46d167ba7a4464fd138fc875f2]
link MilestoneAdd to Styles--><path d="M406.017,895.666 C452.904,913.138 547.122,940.009 617,906.64 C620.331,905.049 683.388,825.633 711.344,790.293 " fill="none" id="MilestoneAdd-&gt;Styles" style="stroke: #000000; stroke-width: 0.5;"/><polygon fill="#000000" points="714.573,786.21,705.8527,790.7878,711.4714,790.1317,712.1274,795.7504,714.573,786.21" style="stroke: #000000; stroke-width: 0.5;"/><!--MD5=[b1a3a221ff0f3fd0e541d808eeeb9619]
link MilestoneType to milestoneTypes--><path d="M561.565,780.612 C594.258,752.928 667.039,691.298 703.225,660.655 " fill="none" id="MilestoneType-&gt;milestoneTypes" style="stroke: #000000; stroke-width: 0.5;"/><polygon fill="#000000" points="707.451,657.077,697.9973,659.8388,703.6347,660.3075,703.1661,665.9449,707.451,657.077" style="stroke: #000000; stroke-width: 0.5;"/><!--MD5=[a39eddb399a99b403d9edd55edd39b27]
link MilestoneType to Styles--><path d="M597.885,788.453 C628.134,784.914 665.144,780.584 691.319,777.522 " fill="none" id="MilestoneType-&gt;Styles" style="stroke: #000000; stroke-width: 0.5;"/><polygon fill="#000000" points="696.404,776.927,686.9999,774.0008,691.4379,777.5085,687.9302,781.9465,696.404,776.927" style="stroke: #000000; stroke-width: 0.5;"/><!--MD5=[e9f502745fb7f472da1a5e10ac6a9ae7]
link NavigationMain to DiveForm--><path d="M73.4851,556.052 C94.0525,497.861 177.793,279.59 316,157.64 C322.94,151.516 331.552,146.636 340.032,142.834 " fill="none" id="NavigationMain-&gt;DiveForm" style="stroke: #000000; stroke-width: 0.5;"/><polygon fill="#000000" points="344.718,140.832,334.8702,140.6889,340.1199,142.7961,338.0127,148.0458,344.718,140.832" style="stroke: #000000; stroke-width: 0.5;"/><!--MD5=[f83b678d99e9286f248f222c793775cb]
link NavigationMain to firebase--><path d="M69.3932,556.054 C75.6143,468.329 120.109,14.64 375,14.64 C375,14.64 375,14.64 545,14.64 C660.23,14.64 719.226,-16.51 799,66.64 C859.998,130.221 870.103,423.117 871.708,499.422 " fill="none" id="NavigationMain-&gt;firebase" style="stroke: #000000; stroke-width: 0.5;"/><polygon fill="#000000" points="871.81,504.536,875.6292,495.4578,871.71,499.537,867.6308,495.6178,871.81,504.536" style="stroke: #000000; stroke-width: 0.5;"/><!--MD5=[d573ab1c377cd79525426a86e6ad9170]
link NavigationMain to HomeView--><path d="M85.7536,556.769 C114.357,533.774 171.433,487.89 201.658,463.591 " fill="none" id="NavigationMain-&gt;HomeView" style="stroke: #000000; stroke-width: 0.5;"/><polygon fill="#000000" points="205.917,460.168,196.3968,462.691,202.0206,463.3014,201.4102,468.9252,205.917,460.168" style="stroke: #000000; stroke-width: 0.5;"/><!--MD5=[d1d8fc877f2172ae14b525c797019613]
link NavigationMain to PlanFormView--><path d="M83.1703,584.831 C111.23,611.973 172.437,671.18 203.151,700.89 " fill="none" id="NavigationMain-&gt;PlanFormView" style="stroke: #000000; stroke-width: 0.5;"/><polygon fill="#000000" points="207.098,704.708,203.4106,695.5755,203.5044,701.2315,197.8483,701.3253,207.098,704.708" style="stroke: #000000; stroke-width: 0.5;"/><!--MD5=[7c1513c39d0060d9de675d73063d35da]
link NavigationMain to PlansView--><path d="M75.1179,585.057 C89.3342,615.371 124.705,687.389 164,741.64 C222.49,822.389 239.278,842.959 316,906.64 C378.532,958.543 401.231,961.968 471,1003.64 C486.311,1012.7849 503.68,1022.6888 517.522,1030.4713 " fill="none" id="NavigationMain-&gt;PlansView" style="stroke: #000000; stroke-width: 0.5;"/><polygon fill="#000000" points="522.073,1033.0252,516.1823,1025.1322,517.7128,1030.5781,512.2669,1032.1086,522.073,1033.0252" style="stroke: #000000; stroke-width: 0.5;"/><!--MD5=[a61a83f0e8e0efef82363218f66ae948]
link NavigationMain to ProfileView--><path d="M129.055,570.64 C184.489,570.64 265.844,570.64 319.596,570.64 " fill="none" id="NavigationMain-&gt;ProfileView" style="stroke: #000000; stroke-width: 0.5;"/><polygon fill="#000000" points="324.71,570.64,315.71,566.64,319.71,570.64,315.71,574.64,324.71,570.64" style="stroke: #000000; stroke-width: 0.5;"/><!--MD5=[2183c215af3853aff2e104554b315c9a]
link NavigationMain to SearchUsersView--><path d="M69.7076,585.297 C74.2267,632.327 93.6746,781.993 164,878.64 C246.854,992.504 410.558,1053.0692 493.029,1077.497 " fill="none" id="NavigationMain-&gt;SearchUsersView" style="stroke: #000000; stroke-width: 0.5;"/><polygon fill="#000000" points="497.86,1078.914,490.3495,1072.5428,493.0621,1077.5068,488.098,1080.2194,497.86,1078.914" style="stroke: #000000; stroke-width: 0.5;"/><!--MD5=[4ffaf91031d21673f1cb66f35d1f55fb]
link PlanFormView to firebase--><path d="M280.755,720.395 C409.296,723.254 716.044,723.719 799,666.64 C844.091,635.614 862.462,568.562 868.937,536.054 " fill="none" id="PlanFormView-&gt;firebase" style="stroke: #000000; stroke-width: 0.5;"/><polygon fill="#000000" points="869.944,530.772,864.328,538.8628,869.0069,535.6834,872.1863,540.3622,869.944,530.772" style="stroke: #000000; stroke-width: 0.5;"/><!--MD5=[9e8752682f30e658767de001636b44e5]
link PlanFormView to MilestoneAdd--><path d="M236.156,732.424 C263.628,762.344 328.682,833.195 358.97,866.181 " fill="none" id="PlanFormView-&gt;MilestoneAdd" style="stroke: #000000; stroke-width: 0.5;"/><polygon fill="#000000" points="362.486,870.011,359.3436,860.6769,359.1036,866.3287,353.4519,866.0887,362.486,870.011" style="stroke: #000000; stroke-width: 0.5;"/><!--MD5=[4283f6936902b31aabd5acc5a34c8a93]
link PlanFormView to Styles--><path d="M272.901,725.929 C286.825,727.889 301.995,729.936 316,731.64 C454.641,748.503 620.302,764.152 690.448,770.57 " fill="none" id="PlanFormView-&gt;Styles" style="stroke: #000000; stroke-width: 0.5;"/><polygon fill="#000000" points="695.734,771.053,687.136,766.2495,690.7548,770.5974,686.4069,774.2162,695.734,771.053" style="stroke: #000000; stroke-width: 0.5;"/><!--MD5=[4448d15132288b3e8a791a3440ab231c]
link planHelpers to firebase--><path d="M779.853,517.64 C795.883,517.64 813.27,517.64 828.576,517.64 " fill="none" id="planHelpers-&gt;firebase" style="stroke: #000000; stroke-width: 0.5;"/><polygon fill="#000000" points="833.682,517.64,824.682,513.64,828.682,517.64,824.682,521.64,833.682,517.64" style="stroke: #000000; stroke-width: 0.5;"/><!--MD5=[2c8d5e4e22dd48943d8e6755a2cc2ac3]
link PlanItem to Images--><path d="M413.841,442.979 C441.177,439.521 478.307,434.824 505.742,431.353 " fill="none" id="PlanItem-&gt;Images" style="stroke: #000000; stroke-width: 0.5;"/><polygon fill="#000000" points="510.747,430.72,501.3156,427.8829,505.7867,431.3484,502.3211,435.8195,510.747,430.72" style="stroke: #000000; stroke-width: 0.5;"/><!--MD5=[a35bc8274689bd350ed8997a01179bab]
link PlanItem to milestoneTypes--><path d="M396.931,458.824 C455.354,491.608 626.395,587.588 695.267,626.236 " fill="none" id="PlanItem-&gt;milestoneTypes" style="stroke: #000000; stroke-width: 0.5;"/><polygon fill="#000000" points="699.654,628.697,693.7635,620.8038,695.2938,626.2498,689.8479,627.7801,699.654,628.697" style="stroke: #000000; stroke-width: 0.5;"/><!--MD5=[4758b1fdcb4caa7e278353920a63674f]
link PlanItem to planHelpers--><path d="M410.636,454.415 C473.262,467.031 607.799,494.132 678.671,508.408 " fill="none" id="PlanItem-&gt;planHelpers" style="stroke: #000000; stroke-width: 0.5;"/><polygon fill="#000000" points="683.662,509.413,675.6289,503.7148,678.7604,508.4258,674.0494,511.5574,683.662,509.413" style="stroke: #000000; stroke-width: 0.5;"/><!--MD5=[81f064703a503ee3d04f7e1725aabcd1]
link PlanItem to userDataHelpers--><path d="M404.346,438.282 C415.773,433.039 428.184,425.354 436,414.64 C482.23,351.263 420.839,301.953 471,241.64 C476.566,234.947 483.907,229.786 491.773,225.809 " fill="none" id="PlanItem-&gt;userDataHelpers" style="stroke: #000000; stroke-width: 0.5;"/><polygon fill="#000000" points="496.727,223.482,486.8802,223.6852,492.2008,225.6065,490.2795,230.9271,496.727,223.482" style="stroke: #000000; stroke-width: 0.5;"/><!--MD5=[7d9a2e3a2b6134c1b062f062e18c6f84]
link PlansView to firebase--><path d="M579.999,1053.0177 C634.657,1063.8131 740.109,1075.0695 799,1018.6397 C870.106,950.505 872.663,617.796 872.195,535.887 " fill="none" id="PlansView-&gt;firebase" style="stroke: #000000; stroke-width: 0.5;"/><polygon fill="#000000" points="872.16,530.859,868.2218,539.8862,872.1943,535.8589,876.2216,539.8314,872.16,530.859" style="stroke: #000000; stroke-width: 0.5;"/><!--MD5=[a2c7b2e46f140c33e62bfd6d607850ee]
link PlansView to Styles--><path d="M564.698,1032.8263 C580.398,1022.6493 602.141,1006.764 617,988.64 C669.541,924.55 705.255,830.518 718.632,791.562 " fill="none" id="PlansView-&gt;Styles" style="stroke: #000000; stroke-width: 0.5;"/><polygon fill="#000000" points="720.298,786.656,713.6153,793.8907,718.6895,791.3902,721.19,796.4644,720.298,786.656" style="stroke: #000000; stroke-width: 0.5;"/><!--MD5=[cc76fea934afe2b3910735e85ab39be9]
link ProfileView to firebase--><path d="M427.149,570.496 C506.666,569.478 666.269,564.207 799,539.64 C812.903,537.066 827.914,532.81 840.687,528.723 " fill="none" id="ProfileView-&gt;firebase" style="stroke: #000000; stroke-width: 0.5;"/><polygon fill="#000000" points="845.648,527.109,835.8521,526.0895,840.8933,528.6558,838.327,533.697,845.648,527.109" style="stroke: #000000; stroke-width: 0.5;"/><!--MD5=[0437d6dfbced7cf888b321ed1a898b6c]
link ProfileView to handleImageUpload--><path d="M410.636,560.96 C471.765,543.369 601.408,506.062 673.481,485.321 " fill="none" id="ProfileView-&gt;handleImageUpload" style="stroke: #000000; stroke-width: 0.5;"/><polygon fill="#000000" points="678.569,483.857,668.8138,482.5018,673.764,485.2397,671.0261,490.1898,678.569,483.857" style="stroke: #000000; stroke-width: 0.5;"/><!--MD5=[9d6fbf610955847984d906e5c2f50011]
link ProfileView to Logout--><path d="M414.254,579.392 C443.23,586.2 483.025,595.549 510.671,602.044 " fill="none" id="ProfileView-&gt;Logout" style="stroke: #000000; stroke-width: 0.5;"/><polygon fill="#000000" points="515.686,603.223,507.8399,597.2699,510.8186,602.079,506.0095,605.0577,515.686,603.223" style="stroke: #000000; stroke-width: 0.5;"/><!--MD5=[41888e02b4e0ef30d5b0edc9781398f1]
link ProfileView to Styles--><path d="M394.666,582.913 C413.299,595.664 443.687,615.915 471,631.64 C534.046,667.936 553.744,669.71 617,705.64 C648.014,723.256 682.683,745.711 704.051,759.887 " fill="none" id="ProfileView-&gt;Styles" style="stroke: #000000; stroke-width: 0.5;"/><polygon fill="#000000" points="708.403,762.781,703.1241,754.4663,704.2397,760.0121,698.6939,761.1277,708.403,762.781" style="stroke: #000000; stroke-width: 0.5;"/><!--MD5=[b487c7af629a7c70ee261a643780bde5]
link ProfileView to useImagePicker--><path d="M386.621,557.673 C399.876,539.144 423.529,503.567 436,469.64 C466.681,386.174 402.841,329.756 471,272.64 C532.968,220.711 636.312,249.889 689.901,270.593 " fill="none" id="ProfileView-&gt;useImagePicker" style="stroke: #000000; stroke-width: 0.5;"/><polygon fill="#000000" points="694.615,272.442,687.6991,265.4298,689.9608,270.6149,684.7757,272.8766,694.615,272.442" style="stroke: #000000; stroke-width: 0.5;"/><!--MD5=[39049198879a0f1206ace66b0d8242c9]
link SearchUsersView to firebase--><path d="M592.892,1101.7038 C650.041,1111.7953 744.67,1118.1364 799,1065.6397 C838.166,1027.795 865.267,626.265 870.908,535.712 " fill="none" id="SearchUsersView-&gt;firebase" style="stroke: #000000; stroke-width: 0.5;"/><polygon fill="#000000" points="871.22,530.676,866.6698,539.4107,870.9101,535.6664,874.6544,539.9066,871.22,530.676" style="stroke: #000000; stroke-width: 0.5;"/><!--MD5=[e448c14c11105fc7128fffe091fabc47]
link SearchUsersView to Styles--><path d="M595.538,1080.3005 C603.423,1076.9493 610.949,1072.5128 617,1066.6397 C698.033,987.994 718.374,843.215 723.137,792.101 " fill="none" id="SearchUsersView-&gt;Styles" style="stroke: #000000; stroke-width: 0.5;"/><polygon fill="#000000" points="723.598,786.894,718.819,795.5057,723.1565,791.8745,726.7877,796.212,723.598,786.894" style="stroke: #000000; stroke-width: 0.5;"/><!--MD5=[6af79bcf321c970d47a49b6176794b7b]
link SkillsAdd to Styles--><path d="M575.683,830.942 C588.536,827.123 603.581,822.425 617,817.64 C645.431,807.502 677.365,794.177 698.987,784.858 " fill="none" id="SkillsAdd-&gt;Styles" style="stroke: #000000; stroke-width: 0.5;"/><polygon fill="#000000" points="703.71,782.815,693.8616,782.7158,699.1207,784.7996,697.037,790.0587,703.71,782.815" style="stroke: #000000; stroke-width: 0.5;"/><!--MD5=[cd2f7becef9aed95f3f50e28ea4f1f97]
link StatusToggle to Styles--><path d="M586.097,874.089 C596.503,870.869 607.434,866.757 617,861.64 C653.685,842.013 689.741,808.88 709.359,789.355 " fill="none" id="StatusToggle-&gt;Styles" style="stroke: #000000; stroke-width: 0.5;"/><polygon fill="#000000" points="713.059,785.639,703.8738,789.1931,709.5306,789.1817,709.542,794.8385,713.059,785.639" style="stroke: #000000; stroke-width: 0.5;"/><!--MD5=[34973732f9b64281b2b868d7362f2176]
link userDataHelpers to firebase--><path d="M606.814,207.86 C663.815,206.959 747.209,215.048 799,262.64 C868.705,326.694 873.534,452.313 872.732,499.314 " fill="none" id="userDataHelpers-&gt;firebase" style="stroke: #000000; stroke-width: 0.5;"/><polygon fill="#000000" points="872.618,504.389,876.8201,495.4816,872.7309,499.3903,868.8222,495.301,872.618,504.389" style="stroke: #000000; stroke-width: 0.5;"/><script type="text/plantuml"><![CDATA[MD5=[ea969d6a090e3429f8127e8c900948ef]
@startuml

scale max 1920 width
left to right direction

skinparam nodesep 17
skinparam ranksep 35
skinparam monochrome true
skinparam shadowing false
skinparam defaultFontName Tahoma
skinparam defaultFontSize 12
skinparam roundCorner 6
skinparam dpi 150
skinparam arrowColor black
skinparam arrowThickness 0.5
skinparam packageTitleAlignment left

skinparam usecase {
  borderThickness 0.5
}

skinparam rectangle {
  borderThickness 0.5
}

skinparam component {
  borderThickness 1
}


(NavigationMain)
(deleteImage)
(DeleteMilestone)
(diveConditionTypes)
(DiveForm)
(diveHelpers)
(DiveItem)
(firebase)
(friendsHelpers)
(handleImageUpload)
(HomeView)
(IconPicker)
(Images)
(ImageUploader)
(Logout)
(MilestoneAdd)
(MilestoneType)
(milestoneTypes)
(PlanFormView)
(planHelpers)
(PlanItem)
(PlansView)
(ProfileView)
(SearchUsersView)
(SkillsAdd)
(StatusToggle)
(Styles)
(useImagePicker)
(userDataHelpers)


(deleteImage) --> (firebase)
(DeleteMilestone) --> (firebase)
(DeleteMilestone) --> (Styles)
(DiveForm) --> (diveHelpers)
(DiveForm) --> (firebase)
(DiveForm) --> (IconPicker)
(DiveForm) --> (Images)
(DiveForm) --> (ImageUploader)
(DiveForm) --> (Styles)
(diveHelpers) --> (firebase)
(DiveItem) --> (diveConditionTypes)
(DiveItem) --> (diveHelpers)
(DiveItem) --> (Images)
(DiveItem) --> (userDataHelpers)
(handleImageUpload) --> (firebase)
(HomeView) --> (DiveItem)
(HomeView) --> (firebase)
(HomeView) --> (friendsHelpers)
(HomeView) --> (Logout)
(HomeView) --> (PlanItem)
(HomeView) --> (Styles)
(Images) --> (deleteImage)
(Images) --> (Styles)
(ImageUploader) --> (handleImageUpload)
(ImageUploader) --> (Styles)
(ImageUploader) --> (useImagePicker)
(Logout) --> (firebase)
(Logout) --> (Styles)
(MilestoneAdd) --> (DeleteMilestone)
(MilestoneAdd) --> (firebase)
(MilestoneAdd) --> (MilestoneType)
(MilestoneAdd) --> (SkillsAdd)
(MilestoneAdd) --> (StatusToggle)
(MilestoneAdd) --> (Styles)
(MilestoneType) --> (milestoneTypes)
(MilestoneType) --> (Styles)
(NavigationMain) --> (DiveForm)
(NavigationMain) --> (firebase)
(NavigationMain) --> (HomeView)
(NavigationMain) --> (PlanFormView)
(NavigationMain) --> (PlansView)
(NavigationMain) --> (ProfileView)
(NavigationMain) --> (SearchUsersView)
(PlanFormView) --> (firebase)
(PlanFormView) --> (MilestoneAdd)
(PlanFormView) --> (Styles)
(planHelpers) --> (firebase)
(PlanItem) --> (Images)
(PlanItem) --> (milestoneTypes)
(PlanItem) --> (planHelpers)
(PlanItem) --> (userDataHelpers)
(PlansView) --> (firebase)
(PlansView) --> (Styles)
(ProfileView) --> (firebase)
(ProfileView) --> (handleImageUpload)
(ProfileView) --> (Logout)
(ProfileView) --> (Styles)
(ProfileView) --> (useImagePicker)
(SearchUsersView) --> (firebase)
(SearchUsersView) --> (Styles)
(SkillsAdd) --> (Styles)
(StatusToggle) --> (Styles)
(userDataHelpers) --> (firebase)

@enduml


' View and edit on https://arkit.pro
]]></script></g></svg>